<svg width="338" height="115" viewBox="0 0 338 115" fill="none" xmlns="http://www.w3.org/2000/svg">
<g clip-path="url(#clip0)">
<path d="M114.941 112.953H111.405L110.743 114.812H108.599L112.045 105.659H114.407L117.815 114.812H115.596L114.941 112.953ZM112.075 111.094H114.294L113.196 107.932L112.075 111.094Z" fill="#00205B"/>
<path d="M128.799 114.812L125.03 108.798V114.812H123.006V105.659H125.481L128.912 111.222V105.659H130.951V114.812H128.799Z" fill="#00205B"/>
<path d="M137.955 105.464C140.521 105.464 142.702 107.338 142.702 110.243C142.702 113.133 140.521 115.008 137.955 115.008C135.375 115.008 133.193 113.133 133.193 110.243C133.193 107.338 135.375 105.464 137.955 105.464ZM137.955 112.99C139.219 112.99 140.588 112.14 140.588 110.228C140.588 108.316 139.219 107.451 137.955 107.451C136.676 107.451 135.307 108.316 135.307 110.228C135.314 112.14 136.676 112.99 137.955 112.99Z" fill="#00205B"/>
<path d="M150.745 114.812L146.976 108.798V114.812H144.952V105.659H147.427L150.858 111.222V105.659H152.896V114.812H150.745Z" fill="#00205B"/>
<path d="M157.711 111.523V114.812H155.672V105.659H159.118C160.976 105.659 162.255 106.886 162.255 108.587C162.255 110.318 160.976 111.515 159.118 111.515H157.711V111.523ZM158.908 109.761C159.682 109.761 160.209 109.31 160.209 108.602C160.209 107.865 159.682 107.428 158.908 107.428H157.719V109.761H158.908Z" fill="#00205B"/>
<path d="M167.048 111.402H166.326V114.812H164.287V105.659H167.913C169.719 105.659 170.877 106.901 170.877 108.527C170.877 109.769 170.193 110.71 169.072 111.109L170.93 114.812H168.688L167.048 111.402ZM167.529 109.649C168.372 109.649 168.816 109.182 168.816 108.542C168.816 107.857 168.364 107.428 167.529 107.428H166.333V109.649H167.529Z" fill="#00205B"/>
<path d="M177.347 105.464C179.913 105.464 182.094 107.338 182.094 110.243C182.094 113.133 179.913 115.008 177.347 115.008C174.767 115.008 172.585 113.133 172.585 110.243C172.585 107.338 174.767 105.464 177.347 105.464ZM177.347 112.99C178.611 112.99 179.98 112.14 179.98 110.228C179.98 108.316 178.611 107.451 177.347 107.451C176.068 107.451 174.699 108.316 174.699 110.228C174.699 112.14 176.068 112.99 177.347 112.99Z" fill="#00205B"/>
<path d="M184.336 114.812V105.659H190.235V107.594H186.375V109.528H189.768V111.387H186.39V114.804H184.336V114.812Z" fill="#00205B"/>
<path d="M192.439 114.812V105.659H194.5V114.812H192.439Z" fill="#00205B"/>
<path d="M201.316 107.609V114.812H199.278V107.609H196.464V105.659H204.138V107.609H201.316Z" fill="#00205B"/>
<path d="M208.945 110.251C208.945 107.398 211.112 105.464 213.67 105.464C216.416 105.464 217.627 107.233 217.928 108.55L216.009 109.159C215.867 108.527 215.287 107.458 213.677 107.458C212.451 107.458 211.074 108.339 211.074 110.258C211.074 111.974 212.338 112.968 213.707 112.968C215.295 112.968 215.927 111.907 216.107 111.252L218.056 111.809C217.762 113.073 216.544 115.008 213.707 115.008C211.059 115 208.945 113.103 208.945 110.251Z" fill="#00205B"/>
<path d="M225.745 114.812V111.169H222.096V114.812H220.057V105.659H222.096V109.25H225.745V105.659H227.799V114.812H225.745Z" fill="#00205B"/>
<path d="M235.961 112.953H232.425L231.763 114.812H229.619L233.065 105.659H235.427L238.835 114.812H236.616L235.961 112.953ZM233.095 111.094H235.314L234.216 107.932L233.095 111.094Z" fill="#00205B"/>
<path d="M246.479 114.812L242.71 108.798V114.812H240.686V105.659H243.161L246.592 111.222V105.659H248.631V114.812H246.479Z" fill="#00205B"/>
<path d="M258.208 114.812L258.08 113.879C257.681 114.458 256.816 115 255.514 115C252.972 115 250.88 113.126 250.88 110.236C250.88 107.353 253.062 105.456 255.642 105.456C258.26 105.456 259.472 107.007 259.878 108.286L257.914 108.971C257.771 108.407 257.162 107.368 255.642 107.368C254.401 107.368 252.949 108.196 252.949 110.236C252.949 112.147 254.213 113.141 255.695 113.141C257.207 113.141 257.839 112.162 257.952 111.643H255.206V109.912H259.863V114.804H258.208V114.812Z" fill="#00205B"/>
<path d="M262.293 114.812V105.659H264.354V114.812H262.293Z" fill="#00205B"/>
<path d="M272.931 114.812L269.162 108.798V114.812H267.138V105.659H269.613L273.044 111.222V105.659H275.083V114.812H272.931Z" fill="#00205B"/>
<path d="M284.66 114.812L284.532 113.879C284.133 114.458 283.268 115 281.966 115C279.424 115 277.332 113.126 277.332 110.236C277.332 107.353 279.514 105.456 282.094 105.456C284.712 105.456 285.924 107.007 286.33 108.286L284.366 108.971C284.223 108.407 283.614 107.368 282.094 107.368C280.853 107.368 279.401 108.196 279.401 110.236C279.401 112.147 280.665 113.141 282.147 113.141C283.659 113.141 284.291 112.162 284.404 111.643H281.658V109.912H286.315V114.804H284.66V114.812Z" fill="#00205B"/>
<path d="M292.446 114.812V105.659H294.485V112.862H298.435V114.812H292.446Z" fill="#00205B"/>
<path d="M300.383 114.812V105.659H302.445V114.812H300.383Z" fill="#00205B"/>
<path d="M310.924 105.659H313.09L309.75 114.812H307.651L304.296 105.659H306.538L308.742 112.102L310.924 105.659Z" fill="#00205B"/>
<path d="M314.949 114.812V105.659H320.742V107.586H316.987V109.332H320.395V111.124H316.987V112.878H320.757V114.812H314.949Z" fill="#00205B"/>
<path d="M327.663 108.422C327.595 107.993 327.249 107.27 326.143 107.27C325.383 107.27 324.894 107.744 324.894 108.249C324.894 108.685 325.165 109.009 325.797 109.129L327.024 109.363C328.769 109.686 329.672 110.808 329.672 112.11C329.672 113.54 328.476 115 326.294 115C323.766 115 322.683 113.359 322.555 112.072L324.428 111.621C324.503 112.464 325.075 113.194 326.324 113.194C327.121 113.194 327.61 112.81 327.61 112.238C327.61 111.771 327.234 111.44 326.632 111.319L325.383 111.086C323.834 110.793 322.893 109.754 322.893 108.399C322.893 106.668 324.413 105.456 326.173 105.456C328.461 105.456 329.318 106.826 329.514 107.895L327.663 108.422Z" fill="#00205B"/>
<path d="M65.1219 70.3292C64.3846 68.297 64.0009 66.1669 64.0009 63.9992C64.0009 61.237 65.0692 58.3843 65.9795 56.465C66.0171 56.3747 66.9651 54.2146 68.4773 52.0996C69.7186 50.3609 71.622 48.2911 73.6458 48.2836C76.2188 48.2836 77.4526 50.3985 78.5435 52.2652C79.6419 54.1769 80.5898 55.8253 82.5684 55.8253C83.5991 55.8253 84.6599 54.9823 85.5251 53.5146C85.9916 51.8662 86.2473 50.2555 86.2473 48.705C86.2473 46.432 85.8862 44.2417 85.2091 42.1719C85.1188 42.0665 85.0436 41.9536 84.9458 41.8482C83.3283 40.0945 80.9058 39.244 77.4977 39.244C67.6648 39.2591 63.5044 46.0557 63.4743 46.1083L62.9401 47.0191L62.0223 46.5073C61.9922 46.4847 58.5089 44.5955 52.7686 44.5955C47.3217 44.603 43.9287 46.3266 43.5525 46.5298L42.6272 47.0266L42.078 46.1008C41.9049 45.8223 37.7746 39.244 28.0319 39.244C24.7292 39.2515 22.2315 40.1547 20.5989 41.9386C18.8836 43.7977 18.5225 46.1761 18.5225 47.832C18.53 51.5426 20.4108 55.193 22.4722 55.75V55.8253H23.548V55.7726C24.6389 55.5919 25.3235 54.8543 25.8502 54.1243C26.3091 53.2662 26.8056 52.4458 27.3097 51.7157C28.3705 49.8717 29.6118 48.1104 31.8989 48.1104H32.2676C32.2977 48.1104 32.3202 48.118 32.3503 48.118L32.4331 48.1029L32.4857 48.1255C34.2462 48.3588 36.5634 51.219 38.068 53.6952C39.1288 55.4188 41.5889 59.8671 41.5965 64.0293C41.5965 66.197 41.2278 68.3346 40.4905 70.3668L40.4379 70.4797L39.0235 73.4678C38.8128 73.8441 37.6392 76.0946 37.6242 78.9021V78.9322V78.9623C37.9928 82.6579 41.0774 85.4352 44.7939 85.4352H44.8014C47.7882 85.4352 50.3611 83.5912 51.4445 80.9869V75.7258C48.879 75.1161 46.9756 72.8356 46.9756 70.1034C46.9756 70.1034 49.3831 68.9066 52.7686 68.9066C56.1992 68.9066 58.5916 70.1034 58.5916 70.1034C58.5916 72.8431 56.6958 75.1161 54.1303 75.7333H54.0551V80.7085C55.0105 83.2826 57.3729 85.1718 60.2091 85.4126C62.752 83.1923 65.3777 80.7837 67.9431 78.2548C67.7701 75.5828 66.619 73.5355 66.461 73.2646L65.1219 70.3292ZM46.7123 66.4755C45.4559 66.4755 44.4403 65.4519 44.4403 64.1799C44.4403 62.9305 45.4484 61.8993 46.7048 61.8918C47.9687 61.8918 48.9994 62.9229 48.9994 64.1724C49.0069 65.4444 47.9762 66.4755 46.7123 66.4755ZM58.9001 66.483C57.6437 66.483 56.613 65.4594 56.6055 64.1874C56.6055 62.938 57.6287 61.9068 58.8926 61.8993C60.1414 61.8993 61.1721 62.9305 61.1721 64.1799C61.1721 65.4519 60.149 66.4755 58.9001 66.483Z" fill="#5F249F"/>
<path d="M52.6557 91.4039C50.2332 91.4039 48.3448 90.3276 47.3518 88.3782C47.2464 88.175 47.1637 87.9718 47.0809 87.7761C46.3587 87.9492 45.5988 88.0395 44.8239 88.0395C39.7607 88.0395 35.5552 84.2461 35.0587 79.2182V79.1881L35.0436 79.0451V78.9021V78.8795C35.0436 78.7064 35.0511 78.5408 35.0587 78.3752C32.7114 80.5203 29.9052 82.0633 26.941 82.7859C25.805 83.0644 24.6539 83.2149 23.5104 83.2525C33.6067 92.3598 43.1312 98.9532 43.1312 98.9532C43.1312 98.9532 47.3367 96.0253 53.1222 91.3738C52.9642 91.3889 52.8137 91.4039 52.6557 91.4039Z" fill="#5F249F"/>
<path d="M52.8362 83.8922C51.9711 85.1191 50.8275 86.1276 49.5034 86.8502C49.8645 87.776 50.7071 88.7921 52.6557 88.7921C54.7246 88.7921 55.5446 87.648 55.8681 86.6846C54.6795 85.9771 53.6412 85.0287 52.8362 83.8922Z" fill="#5F249F"/>
<path d="M82.5684 58.4295C79.0851 58.4295 77.46 55.6221 76.2789 53.5673C75.1203 51.5878 74.5485 50.8878 73.6382 50.8878C73.2545 50.8878 72.1335 51.4598 70.5912 53.6125C69.2446 55.4941 68.3944 57.4285 68.3643 57.5038L68.3493 57.5414L68.3342 57.579C67.5443 59.2499 66.6039 61.7262 66.6039 63.9917C66.6114 65.8207 66.9199 67.6196 67.5293 69.3357L68.8007 72.0603C69.0941 72.5722 69.8314 74.0022 70.2602 75.9441C75.7598 70.2765 80.7327 64.1573 83.6216 58.3016C83.2304 58.3994 82.8693 58.4295 82.5684 58.4295Z" fill="#5F249F"/>
<path d="M7.68131 54.3651C8.15527 53.5523 10.6304 49.4502 12.7746 48.4341L13.4743 48.1029L14.2416 48.2083C14.8285 48.2911 15.4002 48.5169 15.9645 48.8932C15.9344 48.532 15.9193 48.1782 15.9193 47.8245C15.9193 45.6944 16.3933 42.6386 18.6804 40.1623C20.8245 37.814 23.9768 36.6248 28.0394 36.6172C32.5985 36.6172 36.8041 37.9419 40.2046 40.4483C41.792 41.6225 42.8829 42.8117 43.5525 43.6472C45.2302 42.9698 48.4201 41.9762 52.7761 41.9687C57.1245 41.9687 60.352 42.9622 62.0373 43.6396C62.6918 42.8267 63.7375 41.6902 65.2497 40.5537C69.5756 37.3022 74.3003 36.6172 77.5052 36.6097C79.6268 36.6097 81.4625 36.9033 83.0348 37.4979C78.9723 30.9798 71.479 26.5992 62.9024 26.5992C54.5666 26.5992 47.2615 31.198 43.1312 37.4075C39.0009 31.198 31.6882 26.5992 23.3599 26.5992C10.4574 26.6143 0 36.4968 0 48.6975C0 52.8899 1.82064 57.4812 4.7096 62.1327C5.161 59.2048 6.50767 56.3748 7.68131 54.3651Z" fill="#5F249F"/>
<path d="M33.2155 71.0142L36.9395 71.7744C37.3984 70.9088 37.7821 70.0131 38.0755 69.1024L33.1703 69.8852C33.1177 69.8927 33.0725 69.9002 33.0199 69.9002C32.5685 69.9002 32.1697 69.5766 32.102 69.1174C32.0193 68.6056 32.3653 68.1315 32.8769 68.0487L38.5645 67.1455C38.7 66.3702 38.7752 65.5874 38.7752 64.8122C38.7752 64.6993 38.7677 64.5864 38.7677 64.466C38.7752 64.323 38.7752 64.1724 38.7752 64.0294C38.7677 58.678 33.6217 51.5577 32.0418 50.8051C31.5077 50.8803 30.8306 51.4599 30.1309 52.3254C29.9278 52.5738 29.7247 52.8523 29.529 53.1383L29.499 53.1835L29.4689 53.2286L29.4463 53.2663L29.4237 53.3039L29.3936 53.3415C29.0099 53.906 28.6263 54.5383 28.2651 55.2232L28.2501 55.2533L28.1749 55.3888L28.0846 55.5168L28.077 55.5318C27.6783 56.2995 27.3021 57.0898 26.9937 57.8651L26.4445 59.265L25.0151 58.821C24.3605 58.6177 23.6609 58.5124 22.9687 58.5124C22.269 58.5199 21.5769 58.6177 20.9224 58.821L19.4929 59.265L18.9437 57.8651C18.1463 55.863 16.9425 53.7179 15.8065 52.3254C15.0993 51.4599 14.4298 50.8803 13.8956 50.8051C12.3157 51.5502 7.16975 58.678 7.16223 64.0294C7.16223 64.1724 7.16975 64.3154 7.16975 64.4584C7.16975 64.5713 7.16223 64.6918 7.16223 64.8047C7.16223 65.1358 7.17728 65.467 7.20737 65.7982C7.5384 66.2498 7.86942 66.6939 8.2155 67.1455L13.8505 68.0411C14.362 68.1239 14.7081 68.5981 14.6254 69.1099C14.5501 69.569 14.1589 69.8927 13.7075 69.8927C13.6624 69.8927 13.6097 69.8852 13.557 69.8776L9.93081 69.2981C10.5026 69.9981 11.0894 70.6905 11.6913 71.383L13.5119 71.0142C14.016 70.9088 14.5125 71.24 14.6103 71.7443C14.7156 72.2485 14.3846 72.7453 13.8806 72.8431L13.1207 73.0012C15.4529 75.5678 17.9356 78.0667 20.4409 80.4376C21.2609 80.5881 22.1035 80.6709 22.9612 80.6709C24.1123 80.6709 25.2332 80.5279 26.3166 80.2644C30.2588 79.301 33.6593 76.7269 35.9013 73.4754L32.8393 72.8507C32.3352 72.7453 32.0117 72.2561 32.1095 71.7518C32.2224 71.2324 32.7114 70.9088 33.2155 71.0142ZM14.9263 64.1875C14.9263 62.938 15.9495 61.9069 17.2209 61.8994C18.4623 61.8994 19.4854 62.923 19.4929 64.1799C19.4929 65.4444 18.4698 66.4756 17.2284 66.4756C15.957 66.4756 14.9263 65.452 14.9263 64.1875ZM29.0777 74.0474C28.3328 74.7775 27.3473 75.1839 26.294 75.1839H26.2865C25.0903 75.1839 24.037 74.642 23.3148 73.8066C22.5926 74.642 21.5167 75.1839 20.313 75.1839H20.3055C19.2522 75.1839 18.2742 74.77 17.5444 74.0474C16.8071 73.3023 16.4009 72.3088 16.4009 71.255C16.4009 70.7357 16.8222 70.3217 17.3338 70.3217C17.8453 70.3217 18.2666 70.7432 18.2666 71.255C18.2666 71.8045 18.4773 72.3163 18.861 72.7001C19.2447 73.084 19.7638 73.3023 20.3055 73.3023H20.313C21.4415 73.3023 22.3593 72.384 22.3593 71.2475V70.4421C22.3593 70.3894 22.3819 70.3368 22.3894 70.2841C21.1857 69.8927 20.313 68.7787 20.313 67.4616C20.313 67.4616 21.5769 66.8519 23.3223 66.8519C25.0151 66.8519 26.294 67.4616 26.294 67.4616C26.294 68.7787 25.4213 69.9002 24.2402 70.2841C24.2477 70.3368 24.2702 70.3894 24.2702 70.4421V71.2475C24.2702 72.3765 25.1655 73.3023 26.294 73.3023C26.8432 73.3023 27.3548 73.0915 27.7385 72.7001C28.1297 72.3163 28.3404 71.7969 28.3404 71.255H28.3629C28.3629 70.7357 28.7842 70.3217 29.2958 70.3217C29.8074 70.3217 30.2287 70.7432 30.2287 71.255C30.2362 72.3088 29.83 73.3023 29.0777 74.0474ZM29.3936 66.4756C28.1222 66.4756 27.0915 65.452 27.0915 64.1799C27.0915 62.923 28.1147 61.8994 29.3861 61.8994C30.65 61.8994 31.6657 62.923 31.6657 64.1799C31.6657 65.4444 30.6651 66.4756 29.3936 66.4756Z" fill="#5F249F"/>
<path d="M107.862 96.1156V5.1106H124.571V96.1156H107.862Z" fill="#5F249F"/>
<path d="M200.203 65.196C200.203 84.1782 186.255 98.0047 167.785 98.0047C149.315 98.0047 135.367 84.1782 135.367 65.196C135.367 46.0933 149.315 32.3872 167.785 32.3872C186.262 32.3872 200.203 46.0858 200.203 65.196ZM183.494 65.196C183.494 53.507 175.955 47.5986 167.785 47.5986C159.615 47.5986 152.076 53.507 152.076 65.196C152.076 76.7645 159.615 82.7933 167.785 82.7933C175.955 82.7933 183.494 76.8849 183.494 65.196Z" fill="#5F249F"/>
<path d="M243.68 96.1156H226.971L201.715 34.2689H220.057L235.39 75.7484L250.09 34.2689H267.68L243.68 96.1156Z" fill="#5F249F"/>
<path d="M329.867 78.3902C326.73 89.0781 316.927 97.9972 301.723 97.9972C284.758 97.9972 269.809 85.804 269.809 64.9401C269.809 45.2051 284.381 32.3872 300.218 32.3872C319.32 32.3872 330.748 44.5804 330.748 64.4433C330.748 66.8293 330.499 69.3432 330.499 69.5991H286.27C286.646 77.773 293.56 83.6739 301.851 83.6739C309.637 83.6739 313.91 79.7751 315.919 74.243L329.867 78.3902ZM314.287 58.151C314.038 51.9942 310.013 45.9578 300.466 45.9578C291.799 45.9578 287.022 52.4909 286.646 58.151H314.287Z" fill="#5F249F"/>
<path d="M177.753 16.1598V8.52019H181.169V5.03534H177.753V0H174.202V2.46875C174.202 3.9214 173.428 5.03534 171.667 5.03534H170.824V8.52019H173.864V16.8071C173.864 19.8855 175.76 21.7069 178.799 21.7069C180.221 21.7069 180.958 21.436 181.199 21.3381V18.0941C181.034 18.1242 180.387 18.2296 179.845 18.2296C178.4 18.2221 177.753 17.6124 177.753 16.1598Z" fill="#00205B"/>
<path d="M137.647 27.9239C139.294 27.9239 140.077 26.9454 140.175 25.6283V19.6446C141.017 20.894 142.808 21.9101 145.178 21.9101C149.91 21.9101 152.919 18.1919 152.919 13.2544C152.919 8.38468 150.181 4.6665 145.313 4.6665C142.778 4.6665 140.889 5.84819 140.077 7.27073V5.03531H136.292V27.9239H137.647ZM144.568 18.4253C142.003 18.4253 140.144 16.3931 140.144 13.2544C140.144 10.176 142.003 8.15135 144.568 8.15135C147.201 8.15135 148.992 10.1836 148.992 13.2544C148.992 16.4006 147.171 18.4253 144.568 18.4253Z" fill="#00205B"/>
<path d="M207.914 4.53101C203.017 4.53101 199.398 8.21907 199.398 13.2544C199.398 18.3274 203.017 22.0079 207.914 22.0079C212.85 22.0079 216.461 18.3199 216.461 13.2544C216.461 8.21907 212.85 4.53101 207.914 4.53101ZM207.914 18.493C205.515 18.493 203.318 16.664 203.318 13.2544C203.318 9.83731 205.515 8.08359 207.914 8.08359C210.344 8.08359 212.511 9.84484 212.511 13.2544C212.511 16.7016 210.344 18.493 207.914 18.493Z" fill="#00205B"/>
<path d="M170.26 13.0813C170.26 7.87285 167.289 4.53101 162.218 4.53101C158.057 4.53101 154.206 7.97822 154.206 13.1867C154.206 18.7639 158.163 22.0079 162.617 22.0079C166.574 22.0079 169.169 19.6747 170.05 16.7995L170.17 16.3328H166.506C165.882 17.665 164.686 18.6209 162.617 18.6209C160.187 18.6209 158.223 16.8296 158.125 14.3307H170.155C170.193 14.2705 170.26 13.7286 170.26 13.0813ZM158.231 11.4631C158.366 9.70183 159.788 7.81263 162.256 7.81263C164.956 7.81263 166.243 9.53624 166.311 11.4631H158.231Z" fill="#00205B"/>
<path d="M198.224 15.3845H194.621C194.252 16.6339 193.063 18.4252 190.498 18.4252C188.03 18.4252 185.901 16.5662 185.901 13.2544C185.901 9.94268 188.03 8.15133 190.43 8.15133C192.928 8.15133 194.049 9.7771 194.418 11.2297L194.433 11.2222L194.418 11.2297H198.097C198.247 11.2297 197.976 10.1308 197.931 9.94268C197.931 9.94268 197.931 9.94268 197.931 9.93516C197.931 9.9201 197.924 9.91258 197.924 9.91258C197.239 7.28577 194.809 4.53101 190.4 4.53101C185.668 4.53101 181.989 8.18144 181.989 13.2544C181.989 18.2597 185.676 22.0079 190.506 22.0079C194.831 22.0079 197.299 19.2005 198.074 16.6339C198.066 16.6339 198.382 15.3845 198.224 15.3845Z" fill="#00205B"/>
<path d="M216.273 20.4349C216.694 20.4349 217.04 20.7812 217.04 21.2027C217.04 21.6241 216.694 21.9704 216.273 21.9704C215.851 21.9704 215.513 21.6241 215.513 21.2027C215.513 20.7812 215.851 20.4349 216.273 20.4349ZM216.273 21.8123C216.604 21.8123 216.86 21.5489 216.86 21.2027C216.86 20.8564 216.596 20.593 216.273 20.593C215.942 20.593 215.686 20.8564 215.686 21.2027C215.678 21.5489 215.942 21.8123 216.273 21.8123ZM216.243 21.3156H216.183V21.6166H216.002V20.7812H216.31C216.476 20.7812 216.596 20.9016 216.596 21.0446C216.596 21.1575 216.529 21.2478 216.423 21.293L216.596 21.6166H216.393L216.243 21.3156ZM216.288 21.165C216.371 21.165 216.416 21.1199 216.416 21.0521C216.416 20.9769 216.371 20.9392 216.288 20.9392H216.183V21.1725H216.288V21.165Z" fill="#00205B"/>
<path d="M331.455 90.4104V93.5039H330.304V90.4104H329.175V89.3793H332.568V90.4104H331.455ZM336.947 93.5039V90.9975L336.021 93.5039H335.164L334.223 91.0427V93.5039H333.102V89.3868H334.705L335.608 91.5771L336.465 89.3868H338.068V93.5039H336.947Z" fill="#5F249F"/>
</g>
<defs>
<clipPath id="clip0">
<rect width="338" height="115" fill="white"/>
</clipPath>
</defs>
</svg>
